<svg id="visual" viewBox="0 0 960 300" width="960" height="300" xmlns="http://www.w3.org/2000/svg" xmlns:xlink="http://www.w3.org/1999/xlink" version="1.1"><rect x="0" y="0" width="960" height="300" fill="#001220"></rect><path d="M619 300L619.5 292.8C620 285.7 621 271.3 622.7 257C624.3 242.7 626.7 228.3 621.3 214C616 199.7 603 185.3 612.8 171.2C622.7 157 655.3 143 653.2 128.8C651 114.7 614 100.3 605.5 86C597 71.7 617 57.3 631.7 43C646.3 28.7 655.7 14.3 660.3 7.2L665 0L960 0L960 7.2C960 14.3 960 28.7 960 43C960 57.3 960 71.7 960 86C960 100.3 960 114.7 960 128.8C960 143 960 157 960 171.2C960 185.3 960 199.7 960 214C960 228.3 960 242.7 960 257C960 271.3 960 285.7 960 292.8L960 300Z" fill="#fa7268"></path><path d="M635 300L636.7 292.8C638.3 285.7 641.7 271.3 654.5 257C667.3 242.7 689.7 228.3 694.8 214C700 199.7 688 185.3 694.8 171.2C701.7 157 727.3 143 740 128.8C752.7 114.7 752.3 100.3 750.5 86C748.7 71.7 745.3 57.3 737.2 43C729 28.7 716 14.3 709.5 7.2L703 0L960 0L960 7.2C960 14.3 960 28.7 960 43C960 57.3 960 71.7 960 86C960 100.3 960 114.7 960 128.8C960 143 960 157 960 171.2C960 185.3 960 199.7 960 214C960 228.3 960 242.7 960 257C960 271.3 960 285.7 960 292.8L960 300Z" fill="#ef5f67"></path><path d="M778 300L783.2 292.8C788.3 285.7 798.7 271.3 799.8 257C801 242.7 793 228.3 790.8 214C788.7 199.7 792.3 185.3 792.3 171.2C792.3 157 788.7 143 790.8 128.8C793 114.7 801 100.3 792.3 86C783.7 71.7 758.3 57.3 758.3 43C758.3 28.7 783.7 14.3 796.3 7.2L809 0L960 0L960 7.2C960 14.3 960 28.7 960 43C960 57.3 960 71.7 960 86C960 100.3 960 114.7 960 128.8C960 143 960 157 960 171.2C960 185.3 960 199.7 960 214C960 228.3 960 242.7 960 257C960 271.3 960 285.7 960 292.8L960 300Z" fill="#e34c67"></path><path d="M819 300L825.8 292.8C832.7 285.7 846.3 271.3 844 257C841.7 242.7 823.3 228.3 811.5 214C799.7 199.7 794.3 185.3 799.3 171.2C804.3 157 819.7 143 833.3 128.8C847 114.7 859 100.3 857.5 86C856 71.7 841 57.3 832.3 43C823.7 28.7 821.3 14.3 820.2 7.2L819 0L960 0L960 7.2C960 14.3 960 28.7 960 43C960 57.3 960 71.7 960 86C960 100.3 960 114.7 960 128.8C960 143 960 157 960 171.2C960 185.3 960 199.7 960 214C960 228.3 960 242.7 960 257C960 271.3 960 285.7 960 292.8L960 300Z" fill="#d53867"></path><path d="M912 300L905.2 292.8C898.3 285.7 884.7 271.3 877.5 257C870.3 242.7 869.7 228.3 865.3 214C861 199.7 853 185.3 860.3 171.2C867.7 157 890.3 143 892.3 128.8C894.3 114.7 875.7 100.3 873.5 86C871.3 71.7 885.7 57.3 892.5 43C899.3 28.7 898.7 14.3 898.3 7.2L898 0L960 0L960 7.2C960 14.3 960 28.7 960 43C960 57.3 960 71.7 960 86C960 100.3 960 114.7 960 128.8C960 143 960 157 960 171.2C960 185.3 960 199.7 960 214C960 228.3 960 242.7 960 257C960 271.3 960 285.7 960 292.8L960 300Z" fill="#c62368"></path></svg>